<svg width="342" height="425" viewBox="0 0 342 425" fill="none" xmlns="http://www.w3.org/2000/svg">
<path d="M243 416.795L44 353.002L8 281.795L16.5 8.00034L266.406 8L259.73 45.7951L288.104 115.795L270.655 146.274L325.582 225.505C342.941 248.819 327.757 255.76 317.996 256.317H283.855C275 256.317 277.5 276.295 288.104 287.129C296.353 295.556 279 305.795 270.655 309.592C278 313.795 291.5 327.295 283.855 333.726L259.73 353.002C283.036 391.737 259.084 411.837 243 416.795Z" fill="#FFCD1E"/>
<path d="M81.5 247.201L164.219 274.438L190.227 329.819M44 353.002L243 416.795C259.084 411.837 283.036 391.737 259.73 353.002L283.855 333.726C291.5 327.295 278 313.795 270.655 309.592C279 305.795 296.353 295.556 288.104 287.129C277.5 276.295 275 256.317 283.855 256.317H317.996C327.757 255.76 342.941 248.819 325.582 225.505L270.655 146.274L288.104 115.795L259.73 45.7951L266.406 8L16.5 8.00034L8 281.795L44 353.002Z" stroke="#E4B200" stroke-width="15"/>
</svg>
